<svg width="1600" height="900" viewBox="0 0 1600 900" fill="none" xmlns="http://www.w3.org/2000/svg">
  <defs>
    <linearGradient id="bg" x1="0" y1="0" x2="1600" y2="900" gradientUnits="userSpaceOnUse">
      <stop stop-color="#06131F"/>
      <stop offset="1" stop-color="#111827"/>
    </linearGradient>
    <linearGradient id="header" x1="0" y1="0" x2="1600" y2="0" gradientUnits="userSpaceOnUse">
      <stop stop-color="#0891B2"/>
      <stop offset="1" stop-color="#4338CA"/>
    </linearGradient>
    <filter id="shadow" x="0" y="0" width="2000" height="1200" filterUnits="userSpaceOnUse" color-interpolation-filters="sRGB">
      <feDropShadow dx="0" dy="20" stdDeviation="24" flood-color="#020617" flood-opacity="0.35"/>
    </filter>
  </defs>

  <rect width="1600" height="900" rx="32" fill="url(#bg)"/>
  <rect x="48" y="40" width="1504" height="820" rx="28" fill="#0F172A" stroke="#1E293B" stroke-width="2" filter="url(#shadow)"/>
  <rect x="48" y="40" width="1504" height="88" rx="28" fill="url(#header)"/>
  <circle cx="96" cy="84" r="10" fill="#FCA5A5"/>
  <circle cx="126" cy="84" r="10" fill="#FCD34D"/>
  <circle cx="156" cy="84" r="10" fill="#86EFAC"/>
  <text x="220" y="92" fill="#F8FAFC" font-family="Segoe UI, Arial, sans-serif" font-size="34" font-weight="700">GitHub Copilot Code Review Time Savings Calculator</text>
  <text x="220" y="118" fill="#C7D2FE" font-family="Segoe UI, Arial, sans-serif" font-size="18">Quantify velocity, labor savings, and expansion upside from Copilot Code Review</text>

  <rect x="88" y="168" width="668" height="252" rx="24" fill="#0B1220" stroke="#155E75" stroke-width="2"/>
  <text x="120" y="214" fill="#67E8F9" font-family="Segoe UI, Arial, sans-serif" font-size="28" font-weight="700">1. Customer PR Data</text>
  <text x="120" y="252" fill="#CBD5E1" font-family="Segoe UI, Arial, sans-serif" font-size="22">Month / Year</text>
  <rect x="120" y="270" width="180" height="56" rx="14" fill="#164E63"/>
  <text x="150" y="305" fill="#ECFEFF" font-family="Segoe UI, Arial, sans-serif" font-size="24" font-weight="600">March 2026</text>
  <text x="340" y="252" fill="#CBD5E1" font-family="Segoe UI, Arial, sans-serif" font-size="22">PR Cycle Time</text>
  <rect x="340" y="270" width="180" height="56" rx="14" fill="#082F49"/>
  <text x="364" y="305" fill="#E0F2FE" font-family="Segoe UI, Arial, sans-serif" font-size="22">19 days without</text>
  <rect x="532" y="270" width="180" height="56" rx="14" fill="#082F49"/>
  <text x="566" y="305" fill="#E0F2FE" font-family="Segoe UI, Arial, sans-serif" font-size="22">4 days with</text>
  <text x="120" y="364" fill="#CBD5E1" font-family="Segoe UI, Arial, sans-serif" font-size="22">PR Volume</text>
  <rect x="120" y="382" width="220" height="56" rx="14" fill="#082F49"/>
  <text x="147" y="417" fill="#E0F2FE" font-family="Segoe UI, Arial, sans-serif" font-size="22">27,282 without CCR</text>
  <rect x="356" y="382" width="220" height="56" rx="14" fill="#082F49"/>
  <text x="392" y="417" fill="#E0F2FE" font-family="Segoe UI, Arial, sans-serif" font-size="22">4,914 with CCR</text>
  <text x="120" y="470" fill="#94A3B8" font-family="Segoe UI, Arial, sans-serif" font-size="19">Use real PR analytics, not directional guesses.</text>

  <rect x="844" y="168" width="668" height="252" rx="24" fill="#0B1220" stroke="#1D4ED8" stroke-width="2"/>
  <text x="876" y="214" fill="#93C5FD" font-family="Segoe UI, Arial, sans-serif" font-size="28" font-weight="700">2. Model Parameters</text>
  <text x="876" y="252" fill="#CBD5E1" font-family="Segoe UI, Arial, sans-serif" font-size="22">Baseline review time</text>
  <rect x="876" y="270" width="220" height="56" rx="14" fill="#172554"/>
  <text x="912" y="305" fill="#DBEAFE" font-family="Segoe UI, Arial, sans-serif" font-size="24">30 min / PR</text>
  <text x="1124" y="252" fill="#CBD5E1" font-family="Segoe UI, Arial, sans-serif" font-size="22">With CCR</text>
  <rect x="1124" y="270" width="180" height="56" rx="14" fill="#172554"/>
  <text x="1163" y="305" fill="#DBEAFE" font-family="Segoe UI, Arial, sans-serif" font-size="24">15 min</text>
  <text x="876" y="364" fill="#CBD5E1" font-family="Segoe UI, Arial, sans-serif" font-size="22">Developer loaded cost</text>
  <rect x="876" y="382" width="220" height="56" rx="14" fill="#172554"/>
  <text x="913" y="417" fill="#DBEAFE" font-family="Segoe UI, Arial, sans-serif" font-size="24">$150,000 / year</text>
  <rect x="1124" y="382" width="180" height="56" rx="14" fill="#172554"/>
  <text x="1148" y="417" fill="#DBEAFE" font-family="Segoe UI, Arial, sans-serif" font-size="24">2,080 hrs</text>
  <text x="876" y="470" fill="#94A3B8" font-family="Segoe UI, Arial, sans-serif" font-size="19">The app derives the hourly rate and keeps the assumptions visible.</text>

  <rect x="88" y="456" width="668" height="344" rx="24" fill="#0B1220" stroke="#4F46E5" stroke-width="2"/>
  <text x="120" y="502" fill="#C4B5FD" font-family="Segoe UI, Arial, sans-serif" font-size="28" font-weight="700">3. Generated Results</text>
  <rect x="120" y="536" width="180" height="108" rx="18" fill="#1E3A8A"/>
  <text x="144" y="572" fill="#BFDBFE" font-family="Segoe UI, Arial, sans-serif" font-size="20">Days Faster</text>
  <text x="153" y="622" fill="#F8FAFC" font-family="Segoe UI, Arial, sans-serif" font-size="42" font-weight="700">15.0</text>
  <rect x="320" y="536" width="180" height="108" rx="18" fill="#115E59"/>
  <text x="346" y="572" fill="#99F6E4" font-family="Segoe UI, Arial, sans-serif" font-size="20">Improvement</text>
  <text x="344" y="622" fill="#F8FAFC" font-family="Segoe UI, Arial, sans-serif" font-size="42" font-weight="700">78.9%</text>
  <rect x="520" y="536" width="204" height="108" rx="18" fill="#5B21B6"/>
  <text x="547" y="572" fill="#E9D5FF" font-family="Segoe UI, Arial, sans-serif" font-size="20">Adoption</text>
  <text x="558" y="622" fill="#F8FAFC" font-family="Segoe UI, Arial, sans-serif" font-size="42" font-weight="700">15.3%</text>
  <rect x="120" y="664" width="290" height="108" rx="18" fill="#0F766E"/>
  <text x="146" y="700" fill="#99F6E4" font-family="Segoe UI, Arial, sans-serif" font-size="20">Current Hours Saved</text>
  <text x="171" y="750" fill="#F8FAFC" font-family="Segoe UI, Arial, sans-serif" font-size="42" font-weight="700">1,229 hrs</text>
  <rect x="430" y="664" width="294" height="108" rx="18" fill="#7C2D12"/>
  <text x="457" y="700" fill="#FED7AA" font-family="Segoe UI, Arial, sans-serif" font-size="20">Incremental Opportunity</text>
  <text x="475" y="750" fill="#F8FAFC" font-family="Segoe UI, Arial, sans-serif" font-size="42" font-weight="700">6,821 hrs</text>

  <rect x="844" y="456" width="668" height="344" rx="24" fill="#0B1220" stroke="#9333EA" stroke-width="2"/>
  <text x="876" y="502" fill="#E9D5FF" font-family="Segoe UI, Arial, sans-serif" font-size="28" font-weight="700">4. Executive Summary</text>
  <rect x="876" y="534" width="604" height="196" rx="18" fill="#111827" stroke="#374151"/>
  <text x="904" y="578" fill="#F3F4F6" font-family="Segoe UI, Arial, sans-serif" font-size="24">• PRs using CCR close 15.0 days faster than non-CCR PRs.</text>
  <text x="904" y="620" fill="#F3F4F6" font-family="Segoe UI, Arial, sans-serif" font-size="24">• Current adoption is 15.3% of PRs.</text>
  <text x="904" y="662" fill="#F3F4F6" font-family="Segoe UI, Arial, sans-serif" font-size="24">• Observed monthly savings: 1,229 hours and $88,594.</text>
  <text x="904" y="704" fill="#F3F4F6" font-family="Segoe UI, Arial, sans-serif" font-size="24">• Upside at full coverage: 6,821 hours and $491,863.</text>
  <rect x="876" y="746" width="280" height="32" rx="16" fill="#6D28D9"/>
  <text x="936" y="768" fill="#FAF5FF" font-family="Segoe UI, Arial, sans-serif" font-size="18" font-weight="700">Copy summary for stakeholder follow-up</text>
</svg>
